<?xml version="1.0" standalone="no"?>
<!DOCTYPE svg PUBLIC "-//W3C//DTD SVG 20010904//EN"
 "http://www.w3.org/TR/2001/REC-SVG-20010904/DTD/svg10.dtd">
<svg version="1.0" xmlns="http://www.w3.org/2000/svg"
 width="256.000000pt" height="256.000000pt" viewBox="0 0 256.000000 256.000000"
 preserveAspectRatio="xMidYMid meet">
<metadata>
Created by potrace 1.14, written by Peter Selinger 2001-2017
</metadata>
<g transform="translate(0.000000,256.000000) scale(0.100000,-0.100000)"
fill="#000000" stroke="none">
<path d="M1938 2403 c-17 -4 -61 -66 -64 -90 -1 -8 -14 -33 -28 -57 -48 -82
-13 -78 -745 -78 -475 0 -648 -3 -653 -12 -4 -6 -8 -322 -8 -703 0 -567 2
-691 13 -689 15 2 120 76 125 88 2 5 10 8 18 8 8 0 14 5 14 10 0 6 7 10 15 10
8 0 15 4 15 8 0 4 12 15 28 24 l27 16 0 482 c0 265 3 484 7 486 3 2 246 6 540
8 293 1 539 4 546 6 6 2 12 7 12 11 0 4 8 6 18 5 9 -2 34 8 54 21 21 12 40 23
43 23 3 0 16 11 29 25 13 14 27 25 32 25 5 0 16 10 24 21 8 12 20 27 25 33 16
18 32 46 65 112 29 59 41 134 20 134 -5 0 -10 6 -10 14 0 8 -14 26 -31 40 -30
25 -80 33 -131 19z"/>
<path d="M2090 1870 c0 -5 -3 -9 -7 -8 -7 2 -100 -57 -113 -71 -14 -17 -78
-59 -82 -55 -3 2 -11 -3 -19 -12 -12 -14 -14 -101 -14 -493 -1 -403 -3 -479
-15 -496 -15 -19 -29 -20 -550 -22 -539 -1 -600 -3 -600 -14 0 -4 -22 -16 -49
-28 -28 -12 -56 -29 -63 -39 -7 -10 -21 -21 -31 -25 -9 -3 -17 -13 -17 -22 0
-8 -4 -15 -10 -15 -5 0 -10 -6 -10 -14 0 -8 -5 -16 -11 -18 -5 -2 -11 -10 -12
-18 -2 -8 -6 -21 -10 -27 -5 -7 -5 -17 -2 -23 3 -5 2 -10 -4 -10 -6 0 -10 -12
-10 -27 0 -16 -3 -46 -7 -69 -3 -22 0 -60 7 -85 7 -24 13 -46 13 -49 3 -13 41
-48 48 -44 4 3 8 0 8 -5 0 -6 9 -11 20 -11 11 0 20 -4 20 -10 0 -5 7 -10 15
-10 8 0 15 4 15 9 0 8 37 24 52 22 4 0 15 11 25 25 13 20 17 49 18 116 0 86 1
91 28 114 27 23 35 24 165 24 945 4 1003 5 1012 20 5 8 10 11 10 7 0 -4 10 -2
23 5 12 7 25 11 30 10 4 -1 7 2 7 6 0 5 17 27 38 49 21 22 49 60 62 84 l24 44
3 598 c1 328 0 597 -2 597 -3 0 -5 -4 -5 -10z"/>
</g>
</svg>
